<?xml version="1.0" standalone="no"?>
<!DOCTYPE svg PUBLIC "-//W3C//DTD SVG 20010904//EN"
 "http://www.w3.org/TR/2001/REC-SVG-20010904/DTD/svg10.dtd">
<svg version="1.0" xmlns="http://www.w3.org/2000/svg"
 width="840.000000pt" height="585.000000pt" viewBox="0 0 840.000000 585.000000"
 preserveAspectRatio="xMidYMid meet">

<g transform="translate(0.000000,585.000000) scale(0.100000,-0.100000)"
fill="#000000" stroke="none">
<path d="M4360 5395 c-69 -33 -134 -95 -167 -160 -14 -27 -26 -51 -27 -52 -2
-2 -26 20 -55 48 -99 95 -247 141 -387 119 -175 -28 -290 -135 -310 -287 l-6
-51 -46 29 c-73 46 -137 64 -232 64 -99 -1 -169 -27 -238 -89 -64 -58 -87
-115 -86 -213 0 -46 -1 -83 -2 -83 -1 0 -23 10 -50 21 -69 31 -208 38 -270 14
-109 -41 -167 -139 -144 -241 6 -27 24 -72 40 -100 l29 -51 -44 4 c-59 7 -168
-13 -230 -42 -119 -57 -185 -147 -185 -255 0 -78 23 -123 95 -187 l55 -49 -60
-29 c-141 -68 -245 -231 -269 -423 -34 -268 88 -487 307 -553 l43 -12 -30 -31
c-17 -17 -42 -57 -57 -90 -65 -142 8 -301 174 -379 59 -27 80 -32 170 -35 90
-4 102 -6 97 -21 -17 -43 -17 -139 0 -196 24 -83 55 -133 126 -200 l60 -58
-27 -60 c-95 -212 -4 -462 204 -560 63 -30 73 -32 182 -32 109 0 119 2 182 32
74 35 155 108 185 167 l19 38 110 2 c93 1 118 6 174 29 36 15 92 48 125 72
l60 45 6 -43 c11 -74 48 -144 101 -192 61 -54 102 -68 186 -63 113 7 206 67
284 181 l41 61 16 -25 c73 -116 275 -209 455 -209 252 0 467 143 484 322 2 26
7 48 9 48 3 0 18 -9 33 -20 54 -39 155 -79 228 -92 166 -28 329 40 395 166 23
45 30 157 13 228 l-8 37 33 -9 c19 -6 71 -10 116 -10 241 0 469 172 543 409
30 93 25 178 -14 273 -6 13 2 18 45 27 66 14 108 40 158 97 47 54 71 118 71
191 0 66 -17 109 -59 148 -17 17 -31 32 -31 35 0 3 15 11 34 18 52 19 119 84
151 148 28 55 30 67 30 169 0 100 -3 116 -29 173 -47 102 -150 181 -258 197
l-46 7 29 45 c93 148 84 343 -23 503 -50 75 -114 131 -200 175 -87 43 -159 58
-269 53 -76 -3 -88 -1 -83 12 41 95 39 188 -6 267 -49 86 -134 133 -237 133
-54 0 -149 -31 -211 -70 l-47 -29 -12 63 c-25 137 -105 237 -246 306 -94 46
-157 60 -268 60 -142 0 -251 -37 -367 -125 -35 -26 -64 -46 -65 -44 -1 2 -15
30 -30 61 -37 73 -98 134 -167 167 -45 21 -72 26 -150 29 -85 2 -101 0 -150
-23z m286 -58 c79 -40 137 -116 163 -215 7 -24 19 -46 27 -49 8 -3 39 18 77
53 110 103 234 154 374 154 149 0 272 -47 363 -139 81 -81 104 -135 103 -243
-1 -84 0 -88 22 -88 12 0 30 9 40 20 60 67 208 126 289 115 63 -8 94 -24 138
-73 58 -65 67 -155 26 -253 -9 -20 -21 -40 -27 -43 -13 -9 -15 -66 -1 -66 5 0
35 7 67 15 166 43 334 -4 460 -131 162 -161 181 -400 44 -556 -17 -20 -31 -45
-31 -56 0 -17 8 -20 73 -24 125 -8 215 -66 267 -173 34 -69 36 -217 4 -286
-41 -88 -147 -159 -238 -159 -35 0 -63 -21 -51 -39 3 -6 23 -15 43 -21 92 -25
142 -82 142 -163 0 -86 -57 -179 -133 -216 -48 -23 -82 -27 -149 -16 -63 10
-74 -12 -30 -58 50 -54 66 -95 67 -172 1 -249 -247 -485 -510 -485 -53 0 -92
7 -192 36 -34 9 -39 -18 -14 -77 76 -176 2 -320 -186 -365 -127 -30 -285 16
-401 117 -58 51 -69 42 -74 -59 -3 -73 -9 -96 -31 -134 -105 -180 -436 -240
-669 -122 -67 34 -125 89 -160 151 -17 31 -37 53 -46 53 -10 0 -29 -23 -46
-56 -37 -70 -115 -157 -172 -190 -25 -15 -66 -28 -97 -31 -96 -10 -168 30
-212 116 -24 48 -49 156 -39 172 3 5 0 18 -6 28 -13 26 -33 19 -90 -34 -96
-87 -222 -138 -330 -133 l-62 3 -2 120 c-1 108 -4 126 -28 178 -83 177 -252
271 -445 247 -74 -9 -160 -47 -221 -97 -40 -33 -45 -35 -69 -22 -37 20 -99 94
-128 153 -38 78 -42 142 -16 221 12 36 21 71 19 77 -3 8 -45 12 -129 12 -115
1 -129 3 -187 30 -143 66 -208 208 -148 325 12 23 72 82 130 129 27 22 7 38
-66 50 -210 36 -329 192 -329 432 1 254 149 465 345 489 41 5 52 10 54 26 2
16 -8 26 -40 42 -72 35 -125 80 -154 128 -22 39 -26 54 -22 101 9 105 104 189
250 221 72 15 82 15 167 -1 126 -25 136 -16 66 58 -160 168 -113 343 95 354
75 5 167 -22 241 -69 25 -16 53 -29 62 -29 21 0 22 31 2 69 -63 122 -20 267
95 327 131 68 291 43 412 -65 50 -44 85 -51 80 -16 -9 72 -3 155 15 196 68
154 295 219 477 136 66 -30 150 -106 177 -160 27 -53 49 -46 69 23 35 117 96
191 186 225 62 24 187 15 250 -18z m-1466 -3431 c73 -36 134 -97 173 -171 30
-56 32 -66 32 -165 0 -96 -3 -110 -29 -161 -35 -70 -103 -138 -176 -176 -50
-26 -64 -28 -160 -28 -90 0 -112 3 -153 24 -70 35 -139 102 -178 173 -33 61
-34 67 -34 168 1 123 17 171 87 246 87 94 163 126 293 121 74 -2 99 -8 145
-31z"/>
<path d="M2079 1307 c-90 -34 -155 -95 -196 -184 -19 -42 -24 -69 -24 -135 0
-71 4 -90 31 -144 36 -73 91 -127 167 -161 49 -23 65 -25 146 -21 70 3 103 10
135 27 66 34 118 87 152 153 26 54 30 71 30 148 0 77 -4 94 -30 148 -34 66
-86 119 -152 153 -54 28 -202 37 -259 16z m226 -61 c179 -83 222 -317 84 -455
-108 -108 -290 -108 -398 0 -108 108 -108 290 0 398 80 81 213 105 314 57z"/>
<path d="M1315 941 c-87 -40 -135 -120 -135 -223 1 -143 97 -238 242 -238 78
0 131 23 180 78 85 94 82 239 -5 331 -47 49 -100 71 -177 71 -42 0 -79 -7
-105 -19z m193 -50 c67 -34 102 -93 102 -171 0 -111 -79 -190 -190 -190 -113
0 -190 79 -190 193 0 67 40 136 97 166 50 26 131 27 181 2z"/>
</g>
</svg>
